<svg id="Capa_1" data-name="Capa 1" xmlns="http://www.w3.org/2000/svg" viewBox="0 0 368.5 368.5"><defs><style>.cls-1{fill:#4e4e4e;}.cls-2{fill:#e9c9df;}.cls-10,.cls-11,.cls-12,.cls-13,.cls-14,.cls-15,.cls-16,.cls-17,.cls-2,.cls-3,.cls-4,.cls-5,.cls-6,.cls-7,.cls-8,.cls-9{stroke:#211915;stroke-miterlimit:10;}.cls-3{fill:#c65897;}.cls-4{fill:#c55395;}.cls-5{fill:#dca5c7;}.cls-6{fill:#d181af;}.cls-7{fill:#dda6c8;}.cls-8{fill:#dba0c4;}.cls-9{fill:#f2dfec;}.cls-10{fill:#d99bc1;}.cls-11,.cls-41{fill:#d691ba;}.cls-12{fill:#da9dc2;}.cls-13{fill:#f3e3ef;}.cls-14{fill:#d793bc;}.cls-15{fill:#e9c8de;}.cls-16{fill:#e5bfd8;}.cls-17{fill:#323232;}.cls-18{opacity:0.91;}.cls-19{fill:#fff;}.cls-20{fill:#d2d2d2;}.cls-21{fill:#d1d1d1;}.cls-22{fill:#888;}.cls-23{fill:#d3d3d3;}.cls-24{fill:#828282;}.cls-25{fill:#a6a6a6;}.cls-26{fill:#b0b0b0;}.cls-27{fill:#4f4f4f;}.cls-28{fill:#747474;}.cls-29{fill:#cdcdcd;}.cls-30{fill:#636363;}.cls-31{fill:#5d5d5d;}.cls-32{fill:#cfcfcf;}.cls-33{fill:#787878;}.cls-34{fill:#c65a98;}.cls-35{fill:#e3b7d3;}.cls-36{fill:#cd74a7;}.cls-37{fill:#d898bf;}.cls-38{fill:#eacbe0;}.cls-39{fill:#c55495;}.cls-40{fill:#e8c5dc;}.cls-42{fill:#d386b3;}.cls-43{fill:#cf7bab;}.cls-44{fill:#ecd1e4;}.cls-45{fill:#dba1c4;}.cls-46{fill:#cf7cac;}.cls-47{fill:#d07dad;}.cls-48{fill:#413e3f;}.cls-49{fill:#423e40;}.cls-50{fill:#3a3737;}.cls-51{fill:#c25895;}.cls-52{fill:#c35895;}.cls-53{fill:#c05a95;}.cls-54{fill:#655963;}.cls-55{fill:#725f6d;}.cls-56{fill:#a76a8f;}</style></defs><title>RB uñas_vector</title><path class="cls-1" d="M275.63,250.82c-1-12.83-1.35-25.69-1.8-38.55-.4-11.5-.44-23-.5-34.51-.06-10.82-6.62-17.39-17.32-17.53-31.49-.4-63-1.54-94.42-2.94-16.44-.74-32.88-1.62-49.33-2.29-7.6-.31-13.73,2.77-18.52,8.76.85.51,1-.19,1.28-.46a20.64,20.64,0,0,1,17.59-6.45c21.71,2.21,43.47,3.82,65.26,5,13.72.76,27.46,1.41,41.2,1.69,13,.27,26.05.52,39.07.83,5.13.12,9.87,4.07,10.61,8.7-.13,0-.34,0-.37,0-2.48-5.74-6.92-7.84-13-7.7-15,.34-30.05.41-45.08.59-1.92,1-3.89.12-5.5.18,1.73.55,3.93-.17,6,.64,11.32.65,22.66.7,34,1,3.44-.41,6.89-.09,10.33-.17.42,0,.78.1.73.64-19.16,1.42-38.34,1-57.53.8-6.95-.08-13.91.17-20.86.13q-32.74-.15-65.4-2.52A10.51,10.51,0,0,0,100.33,177q-.83,19.29-1.52,38.58-1.19,33.66-2.27,67.33c-.17,5.35-.14,10.71-.14,16.07,0,10.06,6.86,16.32,17,15.63,7.49-.51,15-.94,22.5-1.38,8-.46,16,.3,23.95.62,6.25.25,12.46-.7,18.69-.44,3.59.14,7.19.43,10.75.88,7.05.91,14.05-.14,21.07-.29,4.73-.1,9.36,1.13,14.12.9-1.8,1.23-4,1-5.93,1.71h16l.06.39-3.8.93,3,.21c-1.38,1.13-3.1.74-4.73,2.1,3.51-.4,6.5-.76,9.49-1.06.38,0,1-.34,1.16.32.05.2-.35.49-.62.85l2.3.16,0,.32-4.95,1.39c7.18.47,13.7-.49,20.65-.09-1.6,1.66-3.4,2.05-5.08,2.53a93.27,93.27,0,0,1-18.18,3c-18.25,1.6-36.56,1.69-54.86,2.07-17.19.35-34.38.29-51.57.27-6.23,0-12.49,0-18.69-.48-12.29-1-22.83-10.91-25.27-23.18-.25-1.21,0-2.55-.92-3.6v-5.76a2.5,2.5,0,0,0,.23-1.63c-.16-10.86.32-21.72.23-32.57-.08-11,.23-22,.33-33,.07-8.46.1-16.93.5-25.37.47-10,.56-20,1.49-29.88.9-9.6,6-16.68,14.7-21,2.46-1.22,5.33-.84,8-1.51h7.68c2.58,1,5.32.67,8,.82,17.16,1,34.33,1.78,51.49,2.64.64,0,1.28,0,1.92-.06,3.27.43,6.57,0,9.84.43.92.12,1.9-.19,2.74.42,22.49,1.09,45,2,67.49,2.49a17.39,17.39,0,0,1,17.42,17.86q-.14,30.43,1,60.84c.12,2.87.27,5.73.41,8.6C276.15,247.64,276.79,249.3,275.63,250.82Z"/><path class="cls-2" d="M82.72,303h-.21l-.22,0v-8.16h.49Z"/><path class="cls-3" d="M82.72,303l.06-8.18c.82-11.65.17-23.33.53-35,.54-18,.9-36.1,1.57-54.14.39-10.53.67-21.07,1.7-31.57,1.22-12.47,11.58-22.15,24.08-21.77,14.13.42,28.24,1.46,42.36,2.17,9.33.47,18.67.86,28,1.26,15.08.66,30.16,1.33,45.25,1.92,9.73.39,19.48.61,29.22,1,5.51.21,10.61,1.59,14.45,5.89,1.93,2.16,3.52,4.55,3.56,7.62-.87-.25-.43-1.55-1.39-1.73-3-6.82-8.22-10-15.63-10.13q-28.14-.63-56.27-1.54c-15.8-.52-31.59-1.23-47.38-1.89-13.87-.59-27.75-1.24-41.62-1.8a19.12,19.12,0,0,0-13.13,4.3,16.6,16.6,0,0,0-5.15,5l.45.46L98.74,160c5.1-3.08,10.66-3.49,16.43-2.95,10.25,1,20.5,2,30.78,2.73,15.77,1.11,31.55,2.22,47.35,2.87,16.92.7,33.87.74,50.8,1.33,5.25.18,10.56-.35,15.77.76l.07.81c-2.86-.5-5.72-.07-8.58-.05q-21.87.12-43.72.3h-7.71a23.68,23.68,0,0,0,7.66.78c16,1,32.11,1.23,48.13,1.15-3.41,1.07-7,.78-10.57,1.05s-7.35.18-11,.16c-21-.09-42.06.55-63.09-.12-19.56-.62-39.13-1.27-58.67-2.3-8-.41-12.12,5.29-12.34,11.5-.79,21.4-1.54,42.81-2.1,64.21-.42,16.22-.94,32.43-1.42,48.65-.09,2.79-.27,5.59-.27,8.38,0,9.14,6,15.32,15.17,15.22,7.51-.09,15-.65,22.51-.84,8.38-.21,16.75-.68,25.14.2,5,.53,10-.46,15.09-.24,9.1.41,18.2,1.21,27.3.72a102,102,0,0,1,21.85.85c-1.19.58-2.48.63-3.69,1.16h15.2l0,.35-3.32.86c.21.59,1.18.07,1.27,1l-8.14,1.9c1.57.65,2.69.19,3.76.06a43.75,43.75,0,0,0,7.78-1.31c2.19-.72,3.37,1.51,5.64.95-1.53,1.28-3.25.86-4.75,1.94h19.38c-3.52,2.57-7.18,3.2-10.82,3.82-14.31,2.46-28.75,2.92-43.23,3-16.63.1-33.26.18-49.88.51-13,.25-26.06.4-39.09.18-7.26-.12-14.11-1.65-19.86-6.49A28.35,28.35,0,0,1,83.2,304.81,18,18,0,0,0,82.72,303Z"/><path class="cls-4" d="M273.51,201.13,273.36,182l.95-.48q0,9.84,0,19.69Z"/><path class="cls-5" d="M277,265c1.09,1.56.56,3.39.8,5.08a45.24,45.24,0,0,1,.26,9.09A73.3,73.3,0,0,1,276.45,265Z"/><path class="cls-6" d="M274.31,181.49l-.95.48c-.74-1.18-.35-2.5-.34-3.74a37.37,37.37,0,0,0-.91-7.82c1,.18.53,1.48,1.4,1.73,1.39,1.24.75,2.91.86,4.38C274.49,178.17,274.34,179.83,274.31,181.49Z"/><path class="cls-6" d="M273.51,201.13l.79.05v13.35C273.77,210.07,273.14,205.63,273.51,201.13Z"/><path class="cls-7" d="M276.09,246.77a56.74,56.74,0,0,1,.58,10.09l-.81,0c-.19-3.37-.79-6.72-.54-10.11Z"/><path class="cls-8" d="M276.09,246.77h-.77c-.24-4-1.05-8-.24-12l.4,0Q275.78,240.77,276.09,246.77Z"/><path class="cls-9" d="M269.23,200.37V190l.42,0v10.4Z"/><path class="cls-10" d="M275.48,234.77l-.4,0c-1.34-2.3-.53-4.81-.71-7.22l.81-.91A34.2,34.2,0,0,1,275.48,234.77Z"/><path class="cls-11" d="M259.94,165.55l-.07-.81c3.27.59,6,2,7.51,5.14l-.75.09A13.34,13.34,0,0,0,259.94,165.55Z"/><path class="cls-12" d="M266.63,170l.75-.09c2.42,2.86,1.94,6.33,2.07,9.67l-.71-.05C268.56,176.2,268.48,172.89,266.63,170Z"/><path class="cls-6" d="M275.18,226.62l-.81.91V215.58l.29-.05C274.83,219.23,275,222.92,275.18,226.62Z"/><path class="cls-13" d="M98.74,160l-5.35,4.84-.45-.46a16.6,16.6,0,0,1,5.15-5Z"/><path class="cls-14" d="M275.86,256.88l.81,0c-.1,2.73.92,5.42.37,8.17l-.59,0Q276.15,260.93,275.86,256.88Z"/><path class="cls-15" d="M207.59,166.58a23.68,23.68,0,0,1-7.66-.78h7.71C207.62,166.06,207.61,166.32,207.59,166.58Z"/><path class="cls-16" d="M268.74,179.5l.71.05v7.16C269.42,184.28,268.24,182,268.74,179.5Z"/><path class="cls-17" d="M138,128.31c.25-2.49.61-5,.72-7.48.19-4.15.17-8.3.34-12.45.32-7.78.72-15.57,1.06-23.35a44,44,0,0,0-.68-10.48c-.46-2.37.09-4.92.08-7.39,0-4.75,0-9.51-.23-14.25s-.88-9.68.45-14.52a26.13,26.13,0,0,1,23.56-18.76,39.25,39.25,0,0,0,5.5-.63,28.59,28.59,0,0,1,7.51-.05c6.92.62,13.83,1.39,20.75,2.11.61.06,1.21.23,1.82.35l0,.3c-2.72.09-5.44.2-8.15.28-8.87.24-17.74.46-26.61.73-3.55.11-7.35,1.17-9.35,2.64a7,7,0,0,0,.79-.18,27.14,27.14,0,0,1,9-1.57q10.68-.06,21.35-.15a1.74,1.74,0,0,1,.83.14c-4.89.41-9.79.78-14.67,1.26-4.24.42-8.55.36-12.69,1.63A20.1,20.1,0,0,0,145,44.94c-.1,4,.61,8,1,12l.45,0c-.14-2.46-.17-4.93-.42-7.38-.6-5.92.61-11.32,4.6-15.86a20.41,20.41,0,0,1,15.2-7c4.23-.18,8.45-.59,12.68-.88,2.31-.16,4.62-.26,6.94-.28-4.77.92-9.54,1.87-14.32,2.75-3.21.59-6.52.81-9.66,1.68-8.05,2.24-14,11.18-13.33,19.44.6,7.25,1.07,14.5,1.61,21.76.3,4,.65,8,1,11.94l-.29,0c-.79-3.76-1.68-7.5-2.34-11.27s-1.13-7.58-1.65-11.21A50,50,0,0,0,146.94,72c.85,4.79,1.9,9.56,2.54,14.38.44,3.23.31,6.54.45,9.81a19.7,19.7,0,0,0,.34,3.16l1.17-12h.31c.11,1.29.29,2.57.32,3.86.19,8.39.38,16.78.51,25.17a25.75,25.75,0,0,0,1.58,9,10.93,10.93,0,0,1,.34,3.31,15.19,15.19,0,0,0,1.31,6.52,4.78,4.78,0,0,0,1.09,1.43l-.51-2c2.45,3.77,4,5,8.63,6l-1.25.73c1.48.16,2.61.3,3.75.39l23.19,1.75c3.42.26,6.85.72,10.28.72a14.14,14.14,0,0,0,13.77-12.86c.8-7.95,1.43-15.92,2.21-23.87.89-9.19,1.84-18.37,2.79-27.55.46-4.53,1-9.06,1.46-13.59a1.72,1.72,0,0,0-.17-1c-.43,2.71-.89,5.41-1.27,8.13-1.18,8.38-2.42,16.76-3.45,25.17-.9,7.29-1.58,14.62-2.32,21.93-.37,3.7-.54,7.42-1,11.1a12.83,12.83,0,0,1-14.21,11c-7-.66-14.12-1-21.17-1.42l-9.16-.61c2.78,0,6.42-.06,10.06,0,4.31.09,8.62.29,12.94.46,2.83.12,5.66.33,8.5.39a11.84,11.84,0,0,0,11.77-10.73c1.07-10.69,2.34-21.36,3.49-32.05.63-5.84,1.19-11.68,1.74-17.53.68-7.23,1.76-14.33,4.71-21.07a9.79,9.79,0,0,0,.45-6.57A1.65,1.65,0,0,1,222,53c.91-7.22,0-14.1-3.79-20.46-.05-.08,0-.22.16-.43l3.47,5.25a1,1,0,0,0,.09-.25c0-.62-1-1.16,0-1.93.2-.16-.4-1.27-.53-2a18.57,18.57,0,0,1,3.37,7.23,43.88,43.88,0,0,1,1,8.05c.13,7.8,0,15.6,0,23.4v1.27l.33.07a8.35,8.35,0,0,0,.4-1.75c.06-3.19,0-6.38.08-9.57.06-4.48.1-8.95.22-13.43.33-12.11-4.39-21.51-15.06-27.55a35.69,35.69,0,0,0-11.63-4q-.47-.09-.93-.21c-.14,0-.27-.14-.47-.51a12.64,12.64,0,0,1,1.69-.42A21.23,21.23,0,0,1,213,18.53c9.88,5.27,16,13.41,17.66,24.5a78.65,78.65,0,0,1,.55,15c-.47,10.41-1.36,20.81-2,31.21-.39,6.55-.69,13.1-.85,19.65-.21,8.47-.41,16.94-1.42,25.36-1.41,11.71-11.47,22-23.17,23.3-4.85.55-9.81.15-14.72.2a23.08,23.08,0,0,0-3.22.17c-.53.08-1.39.14-1.1,1.15h-1.44a7.48,7.48,0,0,0-1-.23c-6.21-.41-12.42-.83-18.63-1.21a27.17,27.17,0,0,1-24-18c-.75-2.16-1.13-4.46-1.69-6.69Zm17,11.47a1,1,0,0,1,.28.2c2.69,3.5,6.3,5.07,10.64,5.44,5,.41,10,1,15,1.63,3.24.42,6.43,1.3,9.68,1.64s6.29.18,9.44.36a18.23,18.23,0,0,0,9.71-2.06,12.88,12.88,0,0,0,4.5-3.54,22.19,22.19,0,0,1-12.6,4.32c.23-.13.29-.19.36-.2a18.8,18.8,0,0,0,16.2-14.87c.69-3.23,1-6.54,1.51-9.82.92-6.49,2.13-12.95,2.66-19.47.63-7.92.69-15.88,1-23.83.07-2.06,0-4.13,0-6.19H223c-.1,1.07-.21,2.14-.3,3.21-.6,6.48-1.16,13-1.78,19.46q-1,10.38-2.07,20.75c-.54,5.24-1,10.5-1.71,15.72A16.05,16.05,0,0,1,203.64,146c-3.28.4-6.69-.05-10-.3-9.44-.71-18.87-1.59-28.32-2.26-7.34-.53-12-5.62-11.69-13,0-.55,0-1.11,0-1.67-1,4.54-.79,6.58.6,9.47-.24-.3-.6-.56-.69-.9-.57-2.06-1.45-4.13-1.55-6.23-.32-7.18-.3-14.37-.55-21.55a66.61,66.61,0,0,0-.92-6.85l-.41,0c-.11,2.63-.34,5.26-.31,7.89.07,6.15.32,12.3.39,18.45.06,4.67,1.3,8.82,4.71,12.16.2.19.44.34.92.71ZM149.28,138a12.29,12.29,0,0,1-.72-2.36c-.28-3-.53-6-.67-9-.31-6.42-.49-12.84-.84-19.25-.13-2.41-.6-4.79-.91-7.19l-.29,0c.06,1,.14,2,.18,3,.43,9.45.83,18.89,1.27,28.34A12.2,12.2,0,0,0,149.28,138Zm18.93,9.95v-.11h-5.32v.11Z"/><path class="cls-18" d="M136.83,126.47c.38-5,.87-10,1.1-15,.45-9.66.75-19.32,1.11-29a8.74,8.74,0,0,0,.05-2.39c-2.05-8.06-.06-16.23-.73-24.33a89.27,89.27,0,0,1-.51-12.44c.7-12.07,10.84-22,22.85-23.44s23.69-.06,35.46,1.49a10,10,0,0,1,1.27.43c-14.22,1.16-27.91,0-41.35,2.53,4.52-.18,9-.44,13.55-.53s9.11,0,13.67.21c-6.33.54-12.64,1.15-19,1.6-10.21.73-18.26,6.91-20,16.27-.75,4.14-.12,8.52-.12,12.79h.63c0-2,.14-4.1,0-6.12a19.73,19.73,0,0,1,16.24-21.33A17.45,17.45,0,0,1,163,27c6.61-.46,13.22-.91,19.88-1-6.46,1.12-12.9,2.48-19.4,3.32C154.78,30.51,146.63,39,147,47.75c.4,9.74,1.35,19.45,2.06,29.17.11,1.51.21,3,.32,4.53l-.59.1L145.3,63.09l-.44.06,4.49,33.48,1-8.74h.43c.19,5.51.41,11,.55,16.54.12,4.79-.14,9.61.29,14.38a69,69,0,0,0,2.53,14.77c1.05,3.24,4.18,5.38,7.58,6.87,6.76,3,14,1.75,21,2.74,5.13.73,10.35.81,15.53,1.21a14.29,14.29,0,0,0,15.42-12.87q2.72-27.79,5.37-55.6a13.1,13.1,0,0,0-.09-4.54c-1,6.74-2.12,13.46-2.89,20.22-1.45,12.86-2.81,25.74-4,38.63-.72,8-7,13.44-14.7,12.63-8.73-.91-17.53-1.17-24.74-1.62,3.44,0,8.44-.07,13.44,0,4,.07,8,.35,12,.54a11.57,11.57,0,0,0,12.3-10.08c1.09-8.72,1.85-17.48,2.86-26.21,1.37-12,2.75-24,4.34-35.92.36-2.73,1.82-5.29,2.43-8a49.27,49.27,0,0,0,.93-7.68,42.55,42.55,0,0,0,.08-8.59c-.54-3.81-1.69-7.54-2.52-11.07l1.78,2.39.43-2.66a24.54,24.54,0,0,1,3.9,12.77c.1,7.92.06,15.84.08,23.76v2.38l.59,0c.14-2,.4-4,.41-6,.06-6.23,0-12.47,0-18.7,0-15.6-8.32-26.4-23.43-30.31a30.34,30.34,0,0,1-4.27-1.3,14.66,14.66,0,0,1,9.28.27c12.78,4,22.08,16.44,22.64,29.81s-.75,26.83-1.59,40.23c-.65,10.52-.71,21.08-1.38,31.61-.44,6.9-.68,14-2.47,20.61-3.09,11.46-13.84,18.88-25.72,19-3.51,0-7-.2-10.55-.09a32.93,32.93,0,0,0-5,.94,3.85,3.85,0,0,1-1,.11c-7.8-.56-15.74-.44-23.39-1.87C147,155,140,147.23,137.32,135.47a9.58,9.58,0,0,0-.49-1.32ZM152.06,136l-.5.1a43,43,0,0,1-.72-4.91c-.22-7.11-.3-14.22-.54-21.33a51.26,51.26,0,0,0-.77-5.62c-.44,8.08-.49,16.06-.42,24,0,5.57.59,10.74,6.49,13.89,3,1.6,5.76,3.26,9.21,3.59,5.56.55,11.11,1.28,16.67,1.86,6.18.65,12.35,1.41,18.55,1.76a14.58,14.58,0,0,0,11-4.06l-6.79,2.51a2,2,0,0,1,1.23-1.09c7-3,10.9-8.35,12-15.81.27-1.82.55-3.64.76-5.46,1.21-10.31,2.63-20.6,3.49-30.94.5-6.1.09-12.28.09-19.13-.24,1.44-.42,2.2-.49,3-1.67,17.26-3.25,34.53-5,51.78-1.12,11-8.66,17.32-18.76,16.39-11.3-1-22.62-1.9-33.93-2.79A11.83,11.83,0,0,1,153,135.4a31.26,31.26,0,0,1-.61-4.56h-.33Zm-5.74-1.61.82-.05-1.37-31.45-.87,0Z"/><path d="M155.81,49.1c3.06,24,2.26,48.07,2.84,72.11l-.72,0c0-2.54.13-5.09,0-7.62-.65-10.76-1.56-21.51-2-32.28-.33-7.8-.08-15.62-.09-23.43Z"/><path d="M159.67,132.65V101.6A119.09,119.09,0,0,1,159.67,132.65Z"/><path class="cls-19" d="M156.82,136.5v-5.11h.32a31.13,31.13,0,0,0,.62,4.55,11.79,11.79,0,0,0,10.65,8.3c11.31.9,22.62,1.77,33.92,2.8,10.1.93,17.65-5.45,18.76-16.39,1.76-17.25,3.34-34.52,5-51.78.08-.77.25-1.53.5-3,0,6.85.41,13-.09,19.13-.86,10.34-2.29,20.63-3.49,30.94-.21,1.82-.49,3.64-.77,5.45-1.12,7.47-5,12.81-12,15.81a2.06,2.06,0,0,0-1.23,1.1l6.8-2.51a14.59,14.59,0,0,1-11,4.05c-6.19-.34-12.37-1.1-18.54-1.75-5.57-.58-11.11-1.32-16.68-1.86-3.44-.34-6.21-2-9.2-3.59-5.91-3.16-6.44-8.32-6.49-13.89-.08-8,0-16,.42-24a51.26,51.26,0,0,1,.77,5.62c.24,7.11.31,14.22.54,21.33a41.52,41.52,0,0,0,.72,4.91Z"/><path class="cls-19" d="M151.08,134.89l-1.43-31.46.87,0,1.38,31.45Z"/><path class="cls-20" d="M284.15,306.54a16.45,16.45,0,0,1,0-8.64Z"/><path class="cls-20" d="M211.67,155.82h48.71a3.61,3.61,0,0,1-2.55.46q-21.45,0-42.89,0c-1.1,0-2.25.19-3.26-.49Z"/><path class="cls-21" d="M189.63,156.23a84,84,0,0,1-12.58-.85q16.39,0,32.79,0a7.65,7.65,0,0,1,1.83.45v0c-6.34,0-12.69,0-19,0A5.59,5.59,0,0,0,189.63,156.23Z"/><ellipse class="cls-20" cx="243.83" cy="161.34" rx="21.61" ry="0.17"/><path class="cls-20" d="M278.4,200.44a5.77,5.77,0,0,1-.45-1.58c0-7.57,0-15.13.43-22.7v24.3Z"/><path class="cls-22" d="M269.28,185.1a28.11,28.11,0,0,1-.08-9.51,36.27,36.27,0,0,1,.47,9.53C269.52,185.47,269.39,185.46,269.28,185.1Z"/><path class="cls-23" d="M278.38,200.46c.77,1.25.47,2.64.48,4a115.06,115.06,0,0,1-.46,13.12V200.44Z"/><path class="cls-24" d="M255.78,168.23c-2.71-.83-5.48-.15-8.22-.36-.94-.07-1.89-.07-2.84-.11,4.7-.76,9.42-.1,14.15-.29A4,4,0,0,1,255.78,168.23Z"/><path class="cls-25" d="M270.26,222V210.34c.67,3.86.4,7.78.42,11.69Q270.47,222.56,270.26,222Z"/><path class="cls-26" d="M269.7,202.9a22,22,0,0,1-.35-6.87c.5-1.38-.28-2.91.46-4.26a44.78,44.78,0,0,1,.33,9.75C269.8,201.92,270.24,202.57,269.7,202.9Z"/><path class="cls-27" d="M275.63,250.82c.62-1.56.24-3.2.37-4.8a50.35,50.35,0,0,1,.5,10c.16.71.7,1.5-.4,1.95C275.94,255.61,275.78,253.22,275.63,250.82Z"/><path class="cls-28" d="M277.06,263.16c.3,2.87.6,5.75.89,8.62l-.69.09a50.92,50.92,0,0,1-.72-7.61C276.83,264,276.52,263.35,277.06,263.16Z"/><path class="cls-29" d="M210.73,166.77c-3.12.3-6.17-.42-9.26-.82h8.79Z"/><path class="cls-23" d="M279.36,233.08c-1.12-4.22-.14-8.51,0-12.77V233.1Z"/><path class="cls-23" d="M279.34,233.1c1.05,3.26.21,6.59,0,9.9v-9.92Z"/><path class="cls-30" d="M277.06,263.16l-.52,1.1c-.15-2.08-.3-4.17-.44-6.25.13-.65.27-1.3.4-1.95C277.36,258.38,276.89,260.79,277.06,263.16Z"/><path class="cls-31" d="M269.81,191.77c-.15,1.42-.31,2.84-.46,4.26,0-3.64-.05-7.29-.07-10.93l.39,0C269.72,187.34,269.76,189.55,269.81,191.77Z"/><path class="cls-23" d="M280.32,254.2c-1.08-2.77-.15-5.63,0-8.45v8.47Z"/><path class="cls-32" d="M270.26,222h.42a11.76,11.76,0,0,1,.15,6.15Z"/><path class="cls-20" d="M280.3,254.22c1,2.67.27,5.44.48,8.16l0,0c-1-2.67-.28-5.44-.48-8.16Z"/><path class="cls-33" d="M269.7,202.9c.15-.46.3-.92.44-1.38v6.81h-.44Z"/><path class="cls-23" d="M280.78,262.38c1,2.12.21,4.35,0,6.54v-6.56Z"/><path d="M152.48,47.46c.52,6.44,1.2,12.86,1.51,19.31.37,7.66.39,15.33.58,23,.19,7.5.48,15,.54,22.51a88.53,88.53,0,0,1-.81,10.51c0-2,0-4.07,0-6.1A264.61,264.61,0,0,0,153,90.14c-.76-9.08-1.66-18.15-1.3-27.28.07-1.71.35-3.41.44-5.12.13-2.75.17-5.49.28-8.24,0-.7.16-1.4.24-2.11Z"/><path d="M156.53,99.57c.65,11.1,1.1,22.18-.55,33.22C155.82,121.7,155.13,110.61,156.53,99.57Z"/><path class="cls-19" d="M154.22,138.25l.75,1.53.84,2.19c-.48-.37-.72-.52-.92-.71-3.41-3.34-4.65-7.49-4.71-12.16-.07-6.15-.32-12.3-.39-18.45,0-2.63.2-5.26.31-7.89l.41,0a66.61,66.61,0,0,1,.92,6.85c.25,7.18.23,14.37.55,21.55.1,2.1,1,4.17,1.55,6.23C153.62,137.69,154,138,154.22,138.25Z"/><path class="cls-19" d="M149.28,138a12.2,12.2,0,0,1-2-6.5c-.44-9.45-.84-18.89-1.27-28.34,0-1-.12-2-.18-3l.29,0c.31,2.4.78,4.78.91,7.19.35,6.41.53,12.83.84,19.25.14,3,.39,6,.67,9A12.29,12.29,0,0,0,149.28,138Z"/><path class="cls-19" d="M168.21,147.94h-5.32v-.11h5.32Z"/><path d="M86.39,238.86c2.26-.83,3.92-.34,4.87,1.72,3.87,8.39,7.56,16.86,11.51,25.21,3,6.34,5.2,13.15,10.32,18.36,2.19,2.22,5.58,3.57,8,2.64s3.75-3.61,4.26-6.79a63.2,63.2,0,0,1,2.76-9.41c1.68-5.19,3.14-10.48,5.23-15.51s6-9,10.43-12.32c2.19-1.63,4.45-3.17,6.74-4.8-2.65-1-5.34-1.91-8-3a28.58,28.58,0,0,1-15.15-13.52c-3.43-6.5-6.33-13.22-5.94-20.8.35-6.64,5.61-14.85,14.09-15.34,7.68-.44,13.56,2.61,19.24,6.63,2.77,2,4.83,4.94,7.21,7.45.82-3.63,1.8-7.63,2.62-11.65a10.86,10.86,0,0,1,4.31-7.2c2.23-1.56,4-1.18,5.12,1.26A31.09,31.09,0,0,1,176.66,193a100.29,100.29,0,0,0,1.45,10.5c2.41-9.29,9.8-12.91,17.65-16a45.15,45.15,0,0,1,14.94-2.93c7.84-.28,15.46.14,22.62,3.88a22.72,22.72,0,0,1,10.56,11.32,9.44,9.44,0,0,1,.47,2.27c1.09,7.22.53,14.17-3.6,20.43-2.3,3.5-4.83,6.85-7.41,10.49,6.17,2.76,13.4,4.87,18.36,11,4.73,5.87,7,12.86,10,19.77,7-3.91,11.23-11.18,18.05-15.1l.77.67a9.16,9.16,0,0,1-1.05,2.1,91.06,91.06,0,0,1-6.93,7.36c-2.8,2.5-6,4.57-8.88,7a4.12,4.12,0,0,0-1.41,2.66c-.18,4.24.59,8.68-.38,12.7-1,4.28-3.62,8.18-5.59,12.22-.48,1-1.26,1.8-1.76,2.77-2.07,4-6.3,5.56-9.24,8.54-4.45,4.52-10.49,5-16.08,6.41-2,.51-4.51-.8-6.78-1.32-.91-.2-1.77-.59-2.69-.78-2.08-.42-2.59-1.76-2.82-3.74-1-8.72,4.32-13.89,10.51-18.26s13.08-8.32,19.54-12.59a4.13,4.13,0,0,0,1.6-3,50.34,50.34,0,0,0-5.89-23.2c-2.87-5.51-7.48-7.34-12.56-9.33-6.53-2.56-13.22-1.7-19.88-1.27-3.15.2-3.8,1.4-3.82,5,0,5.6,0,11.2,0,16.8-.09,6.62-.23,13.25-.51,19.87a29.27,29.27,0,0,1-1.09,5c-.5,0-.58,0-.63,0-1.83-1.11-4.76-1.87-5.25-3.41-1-3.19-.87-6.79-.92-10.23-.07-4.71.25-9.42.16-14.12-.06-3.15-.69-6.28-.83-9.42-.26-5.89-.34-11.78-.51-17.66-.15-4.77-.64-9.56-.39-14.3.26-5,1.18-10,1.89-14.95a1.57,1.57,0,0,1,1-1.09c4.25-.63,8.91.75,9.06,6.27.1,3.62,1,7.24.83,10.83-.25,5.89-1.06,11.75-1.66,17.84a28.43,28.43,0,0,0,13.26-3.09c5.94-3.12,9.46-12.93,11.57-20.05s-1.87-14.35-9.37-17.35c-5.09-2-10.38-1.69-16.16-1.83a34.73,34.73,0,0,0-14.23,2.52c-3.43,1.46-6.28,3.58-7.94,7-.65,1.34-1.37,2.65-2,4a9.61,9.61,0,0,0,3,12.67,2,2,0,0,1,.76,1.29c-4,.38-5.25-2.93-6.95-5.16.17,9.76.49,19.78.48,29.79q0,19.16-.51,38.3a61.3,61.3,0,0,1-1.6,12.14c-.47,2-2.15,3.72-3.34,5.67l-2.71-1.76-2.14,1.06a8.17,8.17,0,0,1-.68-1.9c-.67-7.31-1.3-14.62-1.94-21.93-.48-5.42-.77-10.87-1.51-16.26-.46-3.38-1.67-6.65-2.4-10-.57-2.59-.91-5.24-1.38-7.86-.14-.81-.38-1.62-.6-2.52-7.9,3.06-11.35,9.33-13.31,16.77a154.67,154.67,0,0,1-9.63,27.13c-3.32,7-9.15,10.16-16.55,9.83-8.42-.38-15-4-19.07-12a75.83,75.83,0,0,1-5.85-16.21c-1.48-5.84-4.44-11.32-6.85-16.92-1-2.42-2.32-4.73-3.49-7.08Zm74.78-.88a56.73,56.73,0,0,0,.54-5.78c0-2.86-.27-5.72-.44-8.57-.33-5.79-4.91-21.32-5.92-23.42a21.82,21.82,0,0,0-2.95-4.5c-3.58-4.26-7.18-7.1-12.44-7.15a5.81,5.81,0,0,0-5.07,2.55c-1.59,2.93-1.77,3.83-2.07,7.41-.51,5.95-.12,11.81,1.61,15.9,2.17,5.11,7,11.89,11.07,14.79C150.22,232.55,155.57,234.87,161.17,238Zm86.92,41.7-.69-.27a6.21,6.21,0,0,0-1.09.44q-9.83,6.42-19.61,12.87c-3.28,2.17-5.55,4.89-5,9.2s1.92,5.14,5.51,4.51a17,17,0,0,0,11-6.75,106.32,106.32,0,0,0,7.58-13.21C246.92,284.37,247.36,282,248.09,279.68Z"/><path class="cls-34" d="M85.61,312.91c20.41,15.39,42,25.89,66.12,29.66,28.35,4.43,55.86-1.18,83.88-11.67,21.67-9.61,41.43-21.76,61.17-34.85,10.33-6.84,20.67-13.25,31.42-19.42,2.81-1.54,5.27-2.37,8.09.5.83.85,2.37,1.19.78,2.69-2.09,2-3.92,4.18-6,6a403.06,403.06,0,0,1-51,38.42c-24.56,14.15-49,23.8-76.76,29.53-33.69,4.43-62.9,1.34-94.39-11.66a174.17,174.17,0,0,1-30.81-20.05l.69-.77c1,.78,2.08,1.56,3.13,2.32q5.28,4.11,10.8,7.76c.19-.28.38-.57.58-.85-3.15-3.1-7.24-5-10.55-7.88q-3.37-2.88-6.62-5.94l.61-.77q5.13,4.4,10.51,8.32,4.41,3.25,9,6.18c-2.29-3-5.27-5-8.25-7.12-2-1.55-3.92-3.14-5.84-4.77l.75-.86q4.92,3.81,10.06,7.19l0-.09a164.73,164.73,0,0,1-14.6-13.15.71.71,0,0,0,.18-.47c1-.47,1.36.38,1.88.83q4.93,4.28,10.13,8.14,4,2.91,8.15,5.55t8.44,4.92c2.49,1.34,5,2.61,7.57,3.81q3,1.43,6.12,2.71,3.42,1.25,6.89,2.32c-2.07-1.29-3.87-3.1-6.59-2.91-2-.8-3.5-2.93-6.11-2.57-2.5-1.3-4.49-3.54-7.56-3.84-2.7-1.79-5.08-4.06-8.29-5.1q-4-2.78-7.9-5.82c-2.08-1.61-4.13-3.27-6.14-5Zm18.78,24.75A17.12,17.12,0,0,0,97,333.15C98.89,335.63,102.1,335.86,104.39,337.66Zm5.72,0c-2.36-1.88-4.56-3.93-7.79-4C104.75,335.45,107.69,336.05,110.11,337.63Zm-9.31-8.21c-1.08-.78-2.16-1.55-3.88-2.86C98,328.63,99.51,328.87,100.8,329.42Z"/><path class="cls-35" d="M78.45,311.66a.71.71,0,0,0,.18-.47c-3.38-4.83-7.39-9-11-13.64-2.13-2.69-4-5.61-7.57-7.77C65.18,297.49,71.42,305.56,78.45,311.66Z"/><path class="cls-35" d="M54,294.59c-.19,1.85,1.19,2.9,2.08,4.14a94.53,94.53,0,0,0,13,14.84c-4.42-6.83-9.85-12.74-14.56-19.43Z"/><path class="cls-36" d="M82.2,318.57l.75-.86a165,165,0,0,1-12-11.36l-.54.46C73.54,311.52,78.06,314.91,82.2,318.57Z"/><path class="cls-37" d="M76.18,316.73l.61-.77q-5.76-5.73-11-12.07l-.76.66C68.23,309.09,71.63,313.53,76.18,316.73Z"/><path class="cls-38" d="M60.66,284.82c2.49,3.77,5,7.24,7.62,10.6l.73-.66C66.38,291.46,64.8,287.36,60.66,284.82Z"/><path class="cls-39" d="M82.17,310A161.74,161.74,0,0,1,70.1,296.54l-.75.64a165.28,165.28,0,0,0,12.21,13.61Z"/><path class="cls-40" d="M58,289.56c-1-2.92-2.27-5.55-5.55-7.29C54.19,285.16,55.41,288,58,289.56Z"/><path class="cls-41" d="M50.39,282.55c-.6-3.65-2.6-6.48-4.38-9.52C47,276.42,48,279.87,50.39,282.55Z"/><path class="cls-40" d="M57.38,293.81c-.58-3.45-3.21-5.22-5.83-7.18q2.49,3.94,5.17,7.71Z"/><path class="cls-42" d="M70.36,306.81l.54-.46q-4.55-5.14-8.71-10.71l-.56.43Q65.8,301.65,70.36,306.81Z"/><path class="cls-40" d="M54.25,279.05c.65,2.43,2.49,3.92,4,5.55C57.74,282.24,57,280.1,54.25,279.05Z"/><path class="cls-39" d="M78.15,322.09l.69-.77q-4.09-3.4-8-7.09l-.3.3Q74.23,318.45,78.15,322.09Z"/><path class="cls-43" d="M54,294.59l.5-.45q-3.34-5.07-6.38-10.42l-.68.56Q50.6,289.58,54,294.59Z"/><path class="cls-42" d="M57.38,293.81l-.66.53q3.15,4.44,6.53,8.63l.65-.55C61.65,299.64,59.48,296.76,57.38,293.81Z"/><path class="cls-37" d="M82.17,310l-.61.78q1.81,1.75,3.66,3.44l.39-1.32A8,8,0,0,0,82.17,310Z"/><path class="cls-40" d="M47.48,284.28l.68-.56c.41-2-1.31-2.33-3.25-3.86C46.07,281.92,46.77,283.1,47.48,284.28Z"/><path class="cls-44" d="M97,333.15c1.86,2.48,5.07,2.71,7.36,4.51A17.12,17.12,0,0,0,97,333.15Z"/><path class="cls-40" d="M102.32,333.6c2.43,1.85,5.37,2.45,7.79,4C107.75,335.75,105.55,333.7,102.32,333.6Z"/><path class="cls-41" d="M120.92,337.15q3.42,1.25,6.89,2.32c-2.07-1.29-3.87-3.1-6.59-2.91A6.54,6.54,0,0,1,120.92,337.15Z"/><path class="cls-45" d="M120.92,337.15a6.54,6.54,0,0,0,.3-.59c-2-.8-3.5-2.93-6.11-2.57l-.31.45Q117.83,335.87,120.92,337.15Z"/><path class="cls-19" d="M96.92,326.56c1.07,2.07,2.59,2.31,3.88,2.86C99.72,328.64,98.64,327.87,96.92,326.56Z"/><path class="cls-46" d="M342.12,150c-.65,1.09-1.51-.37-2-1q-2.54-2.88-5-5.8c-1.1-1.3-2.09-2-3,.17a5.55,5.55,0,0,1-1,1.36c-2.94,3.47-6.85,3.65-9.94.36a19.67,19.67,0,0,1-5-9.18c-.68-3.06.91-4.8,4.05-4.59,3.37.23,6,2,8.43,4.2,1.41,1.29,2.11.91,2.75-.58.23-.51.44-1,.64-1.55,1-2.7,1-2.84-1.71-3.67s-5.13-1.8-7.75-2.48c-5.72-1.47-8.23-8.09-1.81-12.12-1.61-.7-3.25-1.26-4.76-2.09a6.86,6.86,0,0,1-3.54-8.1c.53-1.79-.3-1.64-1.44-1.65a61.55,61.55,0,0,1-9.1-.33c-3.85-.64-5.45-3.87-3.5-7.29,1.51-2.64,4-4.35,6.31-6.15,1.78-1.36,3.54-2.73,5.26-4.16a1.89,1.89,0,0,0,.78-2.32,2.41,2.41,0,0,0-2.2-1.23A11.7,11.7,0,0,0,303,83.09c-2.77,1.24-5.47,2.64-8.25,3.85-1.34.58-2.77,1.51-4.25.22a5.66,5.66,0,0,1-2.18-5.29c.09-.64,1-1.4.11-1.91-.64-.38-1.35.29-2,.57a51.12,51.12,0,0,1-7.64,2.82c-1.94.5-3.94,1-5.64-.62s-1.53-3.91-.91-6c1.48-5.09,4.56-9.3,7.65-13.47s6.34-8.24,9.36-12.46c1.05-1.47,3.1-3.43,1.56-5s-3.58.32-5.19,1.19c-6.92,3.74-13.05,8.64-19.31,13.35a166.78,166.78,0,0,1-14.67,10.39,40.61,40.61,0,0,1-4,2.11c-7.64,3.45-13.42,0-14-8.43-.44-6.66,1.07-13,3-19.3a111.31,111.31,0,0,1,8.13-19.43c.44-.84.8-1.77,2-1.85a3.73,3.73,0,0,1,3,1.15c.89.91.17,1.76-.22,2.62a172.51,172.51,0,0,0-10,26.67,48.78,48.78,0,0,0-2.17,13c0,5.24,2.41,6.94,7.41,5.31a24.38,24.38,0,0,0,4.36-2c5.67-3.18,10.71-7.26,15.86-11.17,5.61-4.25,11.09-8.67,17.12-12.32a32.83,32.83,0,0,1,4.88-2.55c3.78-1.48,6.92.74,7,4.8a13.74,13.74,0,0,1-2.27,7.21c-3.69,6.52-8.95,11.84-13.48,17.73a33,33,0,0,0-3.78,5.53c-.34.7-1,1.46-.38,2.23s1.41.61,2.23.49c3.69-.52,7-2.17,10.35-3.65,2.85-1.26,5.6-2.74,8.4-4.08a13.47,13.47,0,0,1,2.68-1A2.51,2.51,0,0,1,301,75.34c.6,1.42-.66,1.75-1.55,2.22a22.63,22.63,0,0,0-7.34,6.06c-.53.67-1.35,1.51-.71,2.32s1.63.13,2.38-.22c2.61-1.21,5.17-2.51,7.78-3.72a16.57,16.57,0,0,1,5.25-1.6A5.48,5.48,0,0,1,312.31,83a5.71,5.71,0,0,1,.34,6.32c-1.36,2.47-3.57,4.06-5.78,5.64-1.95,1.4-3.95,2.72-5.89,4.13-.54.4-1.32.87-1,1.72.25.69,1,.7,1.66.73,5,.22,10.05.53,15.06-.29a8.74,8.74,0,0,1,7.47,2.51c2.52,2.27,4.68,4.86,4.5,8.61,0,.62.09,1,.8,1.23a3.11,3.11,0,0,1,1.93,1.69c.73,1.41.76,2.35-1.26,2.59a21.65,21.65,0,0,0-9,3.17c-.94.58-2.13,1.16-2,2.44s1.42,1.44,2.34,1.79a85.68,85.68,0,0,0,10.28,3.23c.67.17,1.08.26,1.56-.48,2.94-4.51,5.36-4.35,8.06.45.18.33.25.79.74.85v3.36c-1.57,1.34-3.28,1.06-4.92.26-1.36-.66-2.15-.76-2.19,1.13a15.64,15.64,0,0,1-.93,4.91,1.94,1.94,0,0,0,.63,2.13c2.5,2.76,5.24,5.64,7.46,8.21C342.28,149.46,342.2,149.84,342.12,150Zm-21.36-44.19a9.39,9.39,0,0,0-5.43,1.91c-1.36,1.08-1.53,2.33-.09,3.36a15.34,15.34,0,0,0,10.15,2.84c1.31-.09,1.92-.8,2-2.18C327.54,108.14,325.09,105.76,320.76,105.79Zm2.35,35.59c2,0,3.85-1.3,5.55-2.82a.81.81,0,0,0,0-1.4c-2.47-2.23-5.14-4.12-8.59-4.35a2.46,2.46,0,0,0-2.91,2.22C316.82,138,319.8,141.38,323.11,141.38Zm16-9.53c1.12,0,2-.18,1.77-1.45-.32-1.53-.85-3-2.81-3a2.42,2.42,0,0,0-2.38,2.54C335.88,131.82,337.9,131.47,339.1,131.85Z"/><path class="cls-47" d="M39,93.71c.31-5,6.07-9.86,14-8,5.52,1.27,10.38,4.09,15.29,6.76,3.13,1.72,2.39,2.21,4.6-1.18a16,16,0,0,0,2.94-7c-1.52.39-2.77.8-4,1-3,.5-5.68-.8-6.38-3s1.21-5.76,3.75-6.84a3.55,3.55,0,0,1,3.83.47,9,9,0,0,1,2.24,2.79C77,82,76.94,82,80,79.38c1.82-1.53,3.72-3.47,6.34-2.65s2.65,3.71,3.25,6c.23.85.33,1.73.5,2.59.14.69.16,1.62,1,1.66s1.07-.87,1.32-1.52a15.24,15.24,0,0,0,1.06-5.38c.05-3.51,0-7,0-10.55a3.29,3.29,0,0,0-.39-1.83A66.31,66.31,0,0,1,87.55,55.5c-4.68,3.55-9.24,7-12.9,11.53a6.49,6.49,0,0,0-1.83,3.82c0,.52-.3.94-.92.78s-.47-.59-.45-1a6.83,6.83,0,0,1,1.9-3.8c3.48-4.44,7.88-7.93,12.33-11.31,1.22-.92,1.61-1.69,1.13-3.14a10.52,10.52,0,0,1-.51-3.53c0-1.5,1.13-2.25,2.5-2.46s1.54,1,1.79,2c.74,3,.75,3,3.35,1.3,4.18-2.79,8.41-5.53,12.53-8.42,1.87-1.31,3.94-2.54,4.44-5.11a.9.9,0,0,1,1.07-.74c.77.21.52.83.36,1.38-.51,1.82-1.94,2.9-3.31,4-4.77,3.78-10,6.84-15.1,10.18-1.71,1.13-2.14,2.07-1.33,4,2.48,6,5.05,11.92,9,17.14,1.13,1.51,2.34,3.63,4.48,3s1.66-3,1.87-4.78a69.73,69.73,0,0,0,.32-13.16c-.25-3.44,2.83-7.21,6.22-7.84,1.72-.31,2.61.69,2,2.4a6.12,6.12,0,0,1-2.61,3.34,1.71,1.71,0,0,0-.61,2.77c1.14,1.7,1.93,4.09,4.21,4.23s3.07-2.28,4.1-3.92A39.44,39.44,0,0,0,124.9,51c.24-.63.4-1.73,1.28-1.43s.25,1.2,0,1.81a44.4,44.4,0,0,1-3.44,7.36c-3.45,5.71-7.13,6.66-12.86,3.07-.2,3.17-.26,6.24-.59,9.3-.74,7.08-6.29,7.2-10,4.1a33.61,33.61,0,0,1-4.36-4.58c0,2.45,0,4.39,0,6.34A24.91,24.91,0,0,1,94,84.57a8,8,0,0,1-1.36,2.78c-2.16,2.65-4.45,2.45-6-.57-.9-1.77-1.54-3.68-2.44-5.46-1-2-2.1-2.14-3.82-.77S77,83.47,76.56,86.19c-.49,3.14-2.84,5.64-4.62,8.57,7,3.2,12.74,9.37,21.49,8.78,0,1.12-1.15,1.34-2,1.7-3.13,1.35-6.27.67-9.37-.19a57.65,57.65,0,0,1-11.71-4.86c-1.33-.72-2.08-.56-2.94.69-3.45,5-6.84,10-9.94,15.26a2.8,2.8,0,0,0,.38,3.75,51.78,51.78,0,0,1,8.68,13.71c3.35,8.37-1.16,16.76-6,20.69a10.33,10.33,0,0,1-4,1.93,9.18,9.18,0,0,1-2.4,0c-6-2.93-7.7-8-7.23-14.23.55-7.22,3.19-13.81,6.43-20.12,1.34-2.62.89-4.11-.91-6.17C46.78,109.28,39,100.37,39,94.68Zm16.7,25.83c-3.39,6.58-6.09,13-7.39,20a16.52,16.52,0,0,0,1.17,10.27c2.27,4.89,7.23,6.27,11.2,2.73,4.22-3.77,6.63-8.61,5.64-14.49C65.05,130.68,60.18,125.42,55.66,119.54ZM40.55,94.61c0,2,1.07,3.79,2.4,6.09,3.26,5.63,7.73,10.33,11.79,15.35,1,1.27,1.31.41,1.77-.39,2.38-4.06,4.88-8,7.58-11.9,1.09-1.57,3.16-3.35,2.93-4.72C66.74,97.38,64,97,62.24,96c-5.06-2.7-10-5.74-15.57-7.27C42.65,87.66,40.55,90.36,40.55,94.61Zm32.8-12.34c.47-.2,1.6.3,1.17-1a7.43,7.43,0,0,0-3.16-4.37c-1.47-.86-2.67-.18-3.5,1s0,2.13.93,2.82A9,9,0,0,0,73.35,82.27ZM112.47,55A6,6,0,0,0,115,51.85c.14-.36.17-.88-.22-1.07a1.34,1.34,0,0,0-1.11.06C112.27,51.79,111.9,53.12,112.47,55Z"/><path class="cls-46" d="M165.48,15.58c.59.86,1.6.52,2.4.8a9.36,9.36,0,0,1,6.35,6.91c.15.56.36,1.15-.43,1.35s-.91-.3-1.18-.87c-3.66-7.6-12.34-9.18-18.66-3.44-3.81,3.46-2.9,8,2,9.69,2.32.82,4.72.69,7.12.66.75,0,1.54-.4,2.27.15,0,.86-.74.82-1.21.9-11.44,2-16.88,12.89-12.59,24.31a19.65,19.65,0,0,0,3.18,5.6c4.05,5,9.88,5.47,15.55,1.35,5.51-4,9.07-9.61,12.42-15.36a55,55,0,0,0,5.57-12.15A8.16,8.16,0,0,1,189.55,33a2.27,2.27,0,0,1,3.06-.44c1.17.6.64,1.59.32,2.51a24.31,24.31,0,0,0-1.51,9.88c.06.79.14,1.8,1.09,1.9s1-.85,1.34-1.49c1.79-3.83,2.81-8,5.14-11.59,1.11-1.72,2.39-3.2,4.68-3.27,3.75-.13,6.07,2,6.35,6,.22,3.24-.81,6.31-1.5,9.42-.32,1.4-.65,2.8-.92,4.21-.11.61-.35,1.41.25,1.8s1.35-.2,1.9-.62c3.38-2.58,6.18-5.78,9.25-8.7.81-.77,1.67-2.67,2.65-1.77s-.9,1.84-1.61,2.57a86,86,0,0,1-8.84,8.44c-1.51,1.17-3.1,2.05-5,1.07s-2.56-2.74-2.71-4.75c-.28-3.89.93-7.58,1.59-11.35a24.63,24.63,0,0,0,.36-3.08c.05-.8,0-1.64-.91-2a2.08,2.08,0,0,0-2.19.59,12.56,12.56,0,0,0-3.61,5.3c-1.13,2.55-2.08,5.18-3.21,7.73-.64,1.43-1.18,3.12-3.28,3s-3.89-.88-4.79-3c-.19-.43-.38-.86-.66-1.47-1.43,1.48-2.08,3.29-3,4.88-3.28,5.43-6.67,10.76-11.84,14.62-8.31,6.23-18.94,4.95-24.68-2.88s-3.8-18.63,4.59-24.7A36.29,36.29,0,0,1,158.53,32a27.06,27.06,0,0,1-7-1.37c-5.32-2-6.13-6.33-1.84-10.09,3.12-2.75,7-3.72,10.95-4.46.52-.1,1.16.14,1.48-.52Z"/><path class="cls-48" d="M32.24,91.24c2.23-6.08,7.38-8,14.37-6.35,6.12,1.48,11.56,4.51,16.92,7.65,1.22.72,1.66.61,2.6-.57a16.48,16.48,0,0,0,3.62-7.43,45.16,45.16,0,0,1-4.5.77c-3.42.27-6-1.49-6.23-4.21s2.44-6.52,5.1-7,4.57.89,6.17,4.24c1.24,2.59,1.31,2.58,3.51.73a25.68,25.68,0,0,1,3.61-2.75c3.28-1.93,5.73-1,6.82,2.67.68,2.33,1.09,4.74,1.7,7.5,2.44-2.76,2.2-5.89,2.46-8.79a76.19,76.19,0,0,0,0-8.14,8.52,8.52,0,0,0-1.27-4.28,46.31,46.31,0,0,1-4-9.17c-.38-1.17-.78-1.3-1.76-.52C77.28,58.79,73.2,62,69.82,66c-1,1.15-2,2.3-2,4a1.24,1.24,0,0,1-1.58,1.33c-1-.2-.81-1.11-.71-1.78a8,8,0,0,1,1.82-3.59C71,61.24,75.52,57.6,80.17,54.08c1.32-1,2-1.82,1.34-3.5A9.22,9.22,0,0,1,81,48a3.49,3.49,0,0,1,2.93-3.72c2-.34,2.16,1,2.4,2.44a24.36,24.36,0,0,0,.7,2.4c1.89-1.24,3.65-2.38,5.39-3.55C96,43.23,99.5,40.92,103,38.49c1.67-1.18,3.45-2.33,3.83-4.67a1.25,1.25,0,0,1,1.69-.92c.92.29.8,1.13.6,1.82a8,8,0,0,1-2.87,3.76c-3.67,3.1-7.82,5.51-11.81,8.16-1.86,1.24-3.73,2.46-5.6,3.69-.66.44-1.25.74-.83,1.85,2.46,6.68,5.26,13.18,9.61,18.89,1,1.36,2.71,3.2,4,2.88,1.81-.44,1.59-2.92,1.78-4.6A78.32,78.32,0,0,0,103.94,58c0-.68,0-1.37-.09-2a8.8,8.8,0,0,1,6.57-8.66c.93-.19,1.94-.3,2.63.64a2.37,2.37,0,0,1,.07,2.5,7.16,7.16,0,0,1-2.65,3.32c-1.14.74-1.2,1.34-.58,2.7.7,1.54,2.12,3.76,3.88,3.94,2,.21,2.94-2.21,3.9-3.83a45.18,45.18,0,0,0,3.64-7.78c.32-.86.77-1.81,1.83-1.48,1.33.41.58,1.47.29,2.19a48,48,0,0,1-4.32,8.78c-3.32,5.06-7.11,6-12.62,3.16-.42,2.88-.63,5.61-1,8.43-.3,2.62-.66,5.36-3.74,6.41S96,76.05,93.7,74c-.89-.76-1.74-1.56-2.73-2.46-.71,3.56-.14,7.17-.91,10.65-.52,2.38-1.18,4.66-3.33,6.13s-3.94,1.17-5.19-1.13c-1-1.81-1.63-3.8-2.49-5.69-1.2-2.64-1.86-2.77-4-1A10,10,0,0,0,72,84a10.1,10.1,0,0,0-.58,2c-.82,3.59-2.32,5-3.9,7.33-.43.62-.86,1.1.16,1.67,4.94,2.75,9.6,6,15,7.93a6,6,0,0,0,4.88.08c.51-.24,1.13-.35,1.4.36s-.25,1.05-.7,1.39a9.84,9.84,0,0,1-7,1.81c-5.85-.51-11.07-3-16.2-5.54-1.73-.87-2.61-.82-3.74.9-3.31,5-6.75,9.88-9.79,15-.83,1.39-.85,2.26.2,3.53a57.73,57.73,0,0,1,7.75,11.77,22.23,22.23,0,0,1,2.21,8.63,19,19,0,0,1-.89,6.58,21.57,21.57,0,0,1-2.48,5.12c-1.57,2.42-3.23,4.52-5.06,5.46a8.23,8.23,0,0,1-4.52,1.13,5.94,5.94,0,0,1-1-.11,9.67,9.67,0,0,1-6.66-5.68,17.3,17.3,0,0,1-1.69-8.83c.58-8.22,3.71-15.64,7.4-22.83a3.12,3.12,0,0,0-.52-4.11c-5.59-6.43-12.81-12.37-14.37-21A12.86,12.86,0,0,1,32.24,91.24ZM89.9,74.08a14.52,14.52,0,0,0-.26-5c-1,2.09,0,3.55,0,5a17.45,17.45,0,0,0-.32,7.23C89.3,78.88,90.21,76.54,89.9,74.08ZM41.43,144.65a13.27,13.27,0,0,0,2.34,8.61c2.26,3.26,6.13,4.11,9.17,1.67,4.74-3.82,7.39-8.9,6.59-15.06-.91-7.09-5.48-12.41-9.66-17.84-.66-.86-1-.42-1.3.3s-.65,1.28-.94,1.93C44.62,130.77,41.82,137.35,41.43,144.65Zm7.67-27.46A197.59,197.59,0,0,1,60.34,100c.8-1.1,0-1.31-.68-1.7-3-1.61-6-3.3-9.06-4.86-3.62-1.85-7.19-3.82-11.22-4.7-3.16-.7-4.89.65-5.12,3.9A13.22,13.22,0,0,0,36.19,100C39.6,106.27,44.5,111.44,49.1,117.19ZM36,87.49c5.6,0,9.87,2.39,14.18,4.6,7.17,3.66,14.1,7.81,21.58,10.86,3.48,1.42,7,2.65,10.86,2.58a4.61,4.61,0,0,0,3.58-1.08c-2.94.15-5.25-1-7.54-2.1-5.09-2.49-9.85-5.6-14.76-8.42-5.6-3.22-11.17-6.53-17.56-8C42.94,85.12,39.56,84.94,36,87.49Zm65.17-12.1C98,73.93,96.34,71.45,94.79,69A80,80,0,0,1,85.3,46.85c-.16-.58,0-1.41-.82-1.55a2.25,2.25,0,0,0-1.88.88,2.36,2.36,0,0,0-.45,2.44,54.69,54.69,0,0,0,7.62,19A22.49,22.49,0,0,0,95.42,74,6.42,6.42,0,0,0,101.17,75.39Zm-24.51,2.7c2.14.44,2.89,1.79,3.5,3.29.7,1.69,1.36,3.39,2.14,5,.44.94,1.08,1.84,2.31,1.74.29,0,.85,0,1-.32.06-.13,0-.32-.16-.59-1.45-2.16-1.2-4.73-1.86-7.08C82.41,76.07,80.68,75.41,76.66,78.09ZM112.9,61.75c-4.77-5-5.61-7-5-11.84-2.58,2.39-3.51,5.08-2.47,8.31C106.45,61.26,109.8,62.46,112.9,61.75Zm-52,16.31c-1.36,2.45-1.17,4.09.63,5.4,2.2,1.59,6.64,1,8.53-1.19C66.37,82.29,62.67,82.29,60.94,78.06Zm7.84,3.17A8.61,8.61,0,0,0,66,76.73a2.19,2.19,0,0,0-3.33.53c-1.06,1.3,0,2.06.93,2.68A7.56,7.56,0,0,0,68.78,81.23Zm42.56-32c-.5-1.08-2,.05-2.31.63a2.9,2.9,0,0,0,0,2.66c.45.56,1.2-.51,1.72-1.19S111.76,50.12,111.34,49.23Zm-6.52,15.08a9.72,9.72,0,0,0-.1,5C104.49,67.67,105.45,66,104.82,64.31Z"/><path class="cls-49" d="M348.71,133.63c-.81,2.58-3.57,2.24-5.73,1.15-1.45-.73-1.63-.38-1.9,1.21a30,30,0,0,0-.78,4.21,4,4,0,0,0,.4,1.72,20.81,20.81,0,0,0,3,3.84c1.4,1.51,2.73,3.12,4.06,4.73.55.66.92,1.3.25,2s-1.38-.19-1.83-.71c-2-2.27-4.05-4.52-6-6.83-.74-.86-1.08-1.09-1.87.06-4.47,6.53-9.51,6.47-13.89-.08a24.38,24.38,0,0,1-3.2-6.39c-.55-1.82-.91-3.66.6-5.17s3.3-1.33,5.17-.89a15.18,15.18,0,0,1,7.05,3.88c1.67,1.6,2.32.8,2.95-.78l.09-.22c1.29-3.1,1.22-3.22-1.95-4.19-2.59-.8-5.14-1.74-7.74-2.51-6.15-1.82-7.9-8.72-2.58-12.67-7.81-4.23-9.26-6.4-7.77-12.13-2.42,0-4.76,0-7.1,0a29.1,29.1,0,0,1-4.05-.41A5.07,5.07,0,0,1,302,95.87c1.2-2.54,3.35-4.23,5.47-5.93s4.63-3.16,6.59-5.19c.52-.53,1.32-1.09.8-2a2.19,2.19,0,0,0-2.05-1c-3.43-.11-6.29,1.6-9.25,2.94-1.67.75-3.27,1.66-5,2.36-3.78,1.57-7-.67-7.05-4.85V79.77c-1.53.59-2.92,1.09-4.28,1.66a29.79,29.79,0,0,1-7.07,2.16c-3.26.51-5.62-1.54-5.71-4.84a14.91,14.91,0,0,1,2-7.08c3-6.12,7.36-11.38,11.51-16.75a56.51,56.51,0,0,0,5.76-8.23c.39-.74,1.14-1.64.48-2.43s-1.82-.2-2.64.15a64.6,64.6,0,0,0-12.68,7.65c-7.12,5.15-14.16,10.4-21.3,15.53a35.91,35.91,0,0,1-9.67,5.18c-6.47,2.14-11.7-.94-13-7.64-1.06-5.56-.15-11,1.11-16.38A112.32,112.32,0,0,1,246,22.94c.56-1.08,1.16-2.08,2.62-2.14,3-.13,4.38,1.9,3.11,4.61A161.24,161.24,0,0,0,241,54.77a43,43,0,0,0-1.61,11.11c.08,5,2.38,6.68,7.11,5.18,4.07-1.3,7.56-3.73,11-6.15,8.59-6,16.57-12.8,25.32-18.56a36,36,0,0,1,7.33-4c4.36-1.62,7.9.86,7.93,5.53,0,3.17-1.37,5.87-2.95,8.48-3.66,6-8.54,11.15-12.84,16.71-1.31,1.71-2.54,3.48-3.75,5.26-.57.84-1.46,1.9-.77,2.81s2,.4,2.95.13a46.22,46.22,0,0,0,6.1-2.1c4.52-2,9-4.13,13.46-6.21,1.26-.58,2.5-1.06,3.83-.11,1.9,1.35,1.83,3.09-.21,4.2-3.61,2-6.8,4.38-9,8.49,2.47-.15,4.1-1.29,5.8-2.13,3-1.49,6-3.09,9.27-3.81s5.44.17,7.23,2.86a6.23,6.23,0,0,1-.09,7.6c-1.88,2.78-4.66,4.56-7.36,6.41-.65.46-1.36.84-2,1.35-1.12.92-3.35,1.5-3,3,.32,1.14,2.57.77,4,.73,4.38-.11,8.75.25,13.15-.43,5.3-.82,12.11,5.28,12.33,10.77,0,1.23.2,2,1.5,2.46.83.28,1.27,1.2,1.61,2,.64,1.56.42,2.62-1.57,2.79a20.2,20.2,0,0,0-9.79,3.57c-2,1.35-1.87,2.1.28,3.09a76.9,76.9,0,0,0,10.89,3.54c.62.18,1.14.29,1.49-.62.7-1.8,1.86-3.24,4.05-3.14a5.66,5.66,0,0,1,4.87,3.37,12.53,12.53,0,0,1,1.09,2.8A3.68,3.68,0,0,1,348.71,133.63Zm-23.42,9.5c-.17-.35-.53-.48-.76-.27s1,1.89,1.46,2.46c3.58,4.73,8,4.6,11.16-.38a20.48,20.48,0,0,0,2.91-10.19,12,12,0,0,1,1-4.57c.65-1.65,2-2.4,4.13-2.44-3.12-2-5.25-.86-5.88,2.69a23.8,23.8,0,0,1-1.55,6C335.13,141.94,330.29,144.55,325.29,143.13ZM238.7,70.05a28.9,28.9,0,0,1,.38-11.2C241.36,47,245.76,36,250.72,25.07c.54-1.17,1.09-2.17-.59-2.9A2.08,2.08,0,0,0,247,23.26c-5.55,10.92-10.19,22.15-11.37,34.5C235.22,62.14,235.44,66.49,238.7,70.05Zm56.95-25.88c-.51,2.87-2,5-3.57,7.06-2.92,3.9-5.95,7.72-8.84,11.63s-5.59,7.78-7.11,12.4c-.62,1.87-1.05,3.77.23,6a14.32,14.32,0,0,1,3.29-6.45c2.7-3.46,5.52-6.83,8.25-10.27,3.28-4.12,6.68-8.17,8.52-13.21C297.29,49,297.67,46.56,295.65,44.17ZM316.27,83c-.7,2.47-2.57,3.64-4.27,4.94-2.61,2-5.39,3.74-7.55,6.23-1.53,1.77-2.77,3.67-1.4,6.36,1.92-2.38,4.38-3.69,6.65-5.27A25.23,25.23,0,0,0,316,89.79C317.57,87.68,318,85.49,316.27,83Zm16,29.13a5.33,5.33,0,0,0-3.76-5.23,9.39,9.39,0,0,0-7.56,1.2c-2,1.29-2,2.45,0,3.74a18.45,18.45,0,0,0,8.15,2.48C330.59,114.41,332.6,114.36,332.3,112.09ZM326,134.62c-2.8-.13-3.73,1.06-3,3.43.72,2.21,1.81,4.2,4.36,4.58s4.56-1.06,6.41-2.65c.48-.41.46-.75,0-1.14C331.42,136.84,328.94,135,326,134.62Zm-2.73-10.75c3.24-3.61,7.39-5.07,11.88-5.69,1.79-.25,1.69-.94.9-2.14a2.36,2.36,0,0,0-2.41-1.19,45.57,45.57,0,0,0-5,.61C324,116.59,321.92,119.86,323.3,123.87ZM294,85.19c1.92-4.09,5.28-6.66,9-8.88.64-.37,2.08-.38,1.34-1.7a2,2,0,0,0-2.56-1.12,16.85,16.85,0,0,0-8.11,5.65C292.08,81.24,292.22,83,294,85.19Zm35.66,20.65c-2.17-3.34-6.39-4.73-9.31-3.34-2.61,1.25-3.4,3.82-2.14,7.17C320.83,105.33,325,105.37,329.62,105.84Zm15.06,26.95c.73.15,1.67.27,1.59-.87-.09-1.4-.57-2.81-2.14-3a1.93,1.93,0,0,0-2,2.24C342.23,132.64,343.6,132.57,344.68,132.79Zm-27.54-30v-.21h-7.36v.21Z"/><path class="cls-49" d="M154.8,30c-2.77-.53-5-.84-7-1.91-4.08-2.19-5-6.35-1.59-9.44a21.56,21.56,0,0,1,20.67-5.18c3.52.87,5.54,3.6,6.49,7.07.2.77.45,1.66-.67,2s-1.59-.23-1.84-1.27c-1-4-3.57-6.28-7.58-6.52-5-.3-9.64.7-12.64,5.2-1.71,2.55-.74,5.3,2.11,6.8s6.17,1.42,9.38,1.25c.79-.05,2-.67,2.17.6s-1.22,1-2,1.21c-6.64,1.5-11.63,5-13.5,11.79-1.93,7-.26,13.34,4.43,18.77,3.83,4.44,8.56,4.91,14,1.59s9.16-8.38,12.45-13.72c2.88-4.67,5.7-9.38,7.3-14.73.54-1.81,1.09-4,3.76-4,2.1,0,2.92,1.09,2.16,3.06a23.82,23.82,0,0,0-1.71,9.12,4,4,0,0,0,.67,2.85c1.43-.94,1.66-2.58,2.25-4,1.34-3.15,2.33-6.45,4.26-9.33,2.16-3.22,4.28-4.17,7.44-3.27s4.64,3,4.74,6.86c.1,4.07-1.33,7.85-2.16,11.74a7.55,7.55,0,0,0-.31,3.11c1.13.28,1.72-.62,2.41-1.17,3.55-2.87,6.63-6.24,9.88-9.43a5.51,5.51,0,0,1,1.27-1.05,1.21,1.21,0,0,1,1.49.43c.39.47.12.93-.23,1.27-4.05,4-7.71,8.38-12.53,11.48-3,1.91-6.48.06-7.18-3.62-.79-4.13.48-8.08,1.21-12.07a25.73,25.73,0,0,0,.6-4.25c0-1.68-.9-2.1-2.35-1.24a7.89,7.89,0,0,0-2.63,3c-1.71,2.9-2.68,6.12-4.05,9.17-.84,1.89-1.3,4.43-4,4.5a5.82,5.82,0,0,1-6.15-4.36c-2.72,4.65-5.24,9.14-8.5,13.13-4,4.84-8.35,9-14.81,10.31-7.94,1.59-15.35-1.57-19.29-8.37a17.79,17.79,0,0,1,2.21-20.73A27.85,27.85,0,0,1,154.8,30Zm-1.28,2.34c-7.14,1.87-12.62,11.18-11.45,18.55A16.53,16.53,0,0,0,158,65.12C145.32,59.07,143.71,40.49,153.52,32.31Zm52.2-3.37c.91,3.14-.14,6-.72,8.82a29,29,0,0,0-.93,8.54c.18,1.86.75,3.55,3,4.31-.38-2.81.54-5.21,1.14-7.67.71-2.95,1.54-5.88,1.29-9C209.34,31.59,208.41,29.73,205.72,28.94ZM190.79,45.38c-1.13-4.37-.41-8.37.82-12.36.23-.76,1.42-1.77,0-2.42s-2.18.13-2.83,1.38a19.55,19.55,0,0,0-2.16,7.74A5,5,0,0,0,190.79,45.38ZM152.49,16c-4.24,1.09-7.59,4.59-7.26,7.28s4.06,5.1,7.91,5C147,24.53,148,20.49,152.49,16Z"/><path class="cls-50" d="M324.47,83.72c-.33,1.32-.7,1.88-1.76,1.27a17.6,17.6,0,0,1-5.18-4.16c-1.33-1.69-2.6-3.43-3.78-5.22a14.74,14.74,0,0,0-7.15-6.08c-.7-.26-1.4-.42-1.06-1.44.4-1.21,1.12-.48,1.71-.28a14.61,14.61,0,0,1,7.24,5.6c2.66,3.76,4.92,7.88,9.32,10Z"/><path class="cls-51" d="M36,87.49c3.56-2.55,6.94-2.37,10.34-1.58,6.39,1.49,12,4.8,17.56,8,4.91,2.82,9.67,5.93,14.76,8.42,2.29,1.12,4.6,2.25,7.54,2.1a4.61,4.61,0,0,1-3.58,1.08c-3.83.07-7.38-1.16-10.86-2.58-7.48-3-14.41-7.2-21.58-10.86C45.87,89.88,41.6,87.45,36,87.49Z"/><path class="cls-52" d="M101.17,75.39A6.42,6.42,0,0,1,95.42,74a22.49,22.49,0,0,1-5.65-6.45,54.69,54.69,0,0,1-7.62-19,2.36,2.36,0,0,1,.45-2.44,2.25,2.25,0,0,1,1.88-.88c.86.14.66,1,.82,1.55A80,80,0,0,0,94.79,69C96.34,71.45,98,73.93,101.17,75.39Z"/><path class="cls-51" d="M76.66,78.09c4-2.68,5.75-2,6.92,2.08.66,2.35.41,4.92,1.86,7.08a.82.82,0,0,1,.13.72,3.71,3.71,0,0,1-1.18.2c-1.3-.07-1.65-.81-2.09-1.75-.78-1.65-1.44-3.35-2.14-5C79.55,79.88,78.8,78.53,76.66,78.09Z"/><path class="cls-52" d="M112.9,61.75c-3.1.71-6.66-.85-7.43-3.53a7.72,7.72,0,0,1,2.47-8.31C107.29,54.72,108.13,56.75,112.9,61.75Z"/><path class="cls-53" d="M60.94,78.06c1.73,4.23,5.43,4.23,9.16,4.21-1.89,2.18-6.33,2.78-8.53,1.19C59.77,82.15,59.58,80.51,60.94,78.06Z"/><path class="cls-54" d="M89.9,74.08c.31,2.46-.6,4.8-.62,7.23a17.45,17.45,0,0,1,.32-7.23h.3Z"/><path class="cls-55" d="M89.9,74.08h-.3c0-1.48-1-2.94,0-5A14.52,14.52,0,0,1,89.9,74.08Z"/><path class="cls-55" d="M104.82,64.31c.63,1.72-.33,3.36-.1,5A9.72,9.72,0,0,1,104.82,64.31Z"/><path class="cls-51" d="M238.7,70.05c-3.26-3.56-3.48-7.91-3.06-12.29,1.18-12.35,5.82-23.58,11.37-34.5a2.08,2.08,0,0,1,3.12-1.09c1.68.73,1.13,1.73.59,2.9-5,10.88-9.36,22-11.64,33.78A28.9,28.9,0,0,0,238.7,70.05Z"/><path class="cls-51" d="M295.65,44.17c2,2.39,1.64,4.78.77,7.15-1.84,5-5.24,9.09-8.52,13.21-2.73,3.44-5.55,6.81-8.25,10.27a14.32,14.32,0,0,0-3.29,6.45c-1.28-2.22-.85-4.12-.23-6,1.52-4.62,4.27-8.55,7.11-12.4s5.92-7.73,8.84-11.63C293.63,49.16,295.14,47,295.65,44.17Z"/><path class="cls-51" d="M324.78,142.7a8.23,8.23,0,0,0,3.54.73,9.81,9.81,0,0,0,6.74-3.1,14.25,14.25,0,0,0,2.66-3.91,23.8,23.8,0,0,0,1.55-6c.63-3.55,2.76-4.65,5.88-2.69-2.13,0-3.48.79-4.13,2.44a11.52,11.52,0,0,0-1,4.57,17.66,17.66,0,0,1-2.91,10.19,6.56,6.56,0,0,1-5.46,3.83c-2.47,0-4-1.33-5.7-3.45-.64-.78-1.52-1.65-1.46-2.46C324.58,142.79,324.71,142.67,324.78,142.7Z"/><path class="cls-51" d="M316.27,83c1.75,2.53,1.3,4.72-.26,6.83a25.23,25.23,0,0,1-6.31,5.43c-2.27,1.58-4.73,2.89-6.65,5.27-1.37-2.69-.13-4.59,1.4-6.36,2.16-2.49,4.94-4.26,7.55-6.23C313.7,86.6,315.57,85.43,316.27,83Z"/><path class="cls-52" d="M323.3,123.87c-1.38-4,.72-7.28,5.4-8.41a45.57,45.57,0,0,1,5-.61,2.36,2.36,0,0,1,2.41,1.19c.79,1.2.89,1.89-.9,2.14C330.69,118.8,326.54,120.26,323.3,123.87Z"/><path class="cls-51" d="M294,85.19c-1.74-2.15-1.88-4-.32-6a16.85,16.85,0,0,1,8.11-5.65,2,2,0,0,1,2.56,1.12c.74,1.32-.7,1.33-1.34,1.7C299.24,78.53,295.88,81.1,294,85.19Z"/><path class="cls-53" d="M329.62,105.84c-4.6-.47-8.79-.51-11.45,3.83-1.26-3.35-.47-5.92,2.14-7.17C323.23,101.11,327.45,102.5,329.62,105.84Z"/><ellipse class="cls-56" cx="313.46" cy="102.68" rx="5.2" ry="0.15"/><path class="cls-52" d="M153.52,32.31c-9.81,8.18-8.2,26.76,4.43,32.81a16.53,16.53,0,0,1-15.88-14.26C140.9,43.49,146.38,34.18,153.52,32.31Z"/><path class="cls-51" d="M205.72,28.94c2.69.79,3.62,2.65,3.82,5,.25,3.08-.58,6-1.29,9-.6,2.46-1.52,4.86-1.14,7.67-2.29-.76-2.86-2.45-3-4.31a29,29,0,0,1,.93-8.54C205.58,34.91,206.63,32.08,205.72,28.94Z"/><path class="cls-51" d="M190.79,45.38a5,5,0,0,1-4.19-5.66A19.55,19.55,0,0,1,188.76,32c.65-1.25,1.51-2,2.83-1.38s.25,1.66,0,2.42C190.38,37,189.66,41,190.79,45.38Z"/><path class="cls-53" d="M152.49,16c-4.53,4.46-5.47,8.5.65,12.31-3.85.07-7.57-2.29-7.91-5S148.25,17.12,152.49,16Z"/></svg>